<svg xmlns="http://www.w3.org/2000/svg" width="181" height="42" viewBox="0 0 181 42"><g fill="#3CA8FC"><path d="M37.95 11.607c-.362-2.97-1.712-5.716-3.883-7.837-2.489-2.433-5.777-3.77-9.258-3.77-3.482 0-6.77 1.337-9.259 3.771-2.179 2.13-3.534 4.891-3.887 7.877-2.99.352-5.753 1.706-7.887 3.881-2.436 2.486-3.776 5.77-3.776 9.247 0 7.292 5.938 13.224 13.239 13.224h23.521c7.299 0 13.24-5.932 13.24-13.223 0-6.89-5.305-12.566-12.05-13.17zm-1.043 23.914h-.102l-.003.001h-23.498l-.091-.002-.033.002h-.086c-5.843-.001-10.594-4.773-10.594-10.639 0-5.733 4.64-10.504 10.344-10.636.751-.018 1.356-.625 1.374-1.379.13-5.729 4.882-10.39 10.59-10.39s10.457 4.658 10.589 10.388c.017.768.642 1.377 1.405 1.377h.106c5.841 0 10.593 4.772 10.593 10.638-.001 5.867-4.752 10.64-10.594 10.64zM31.598 23.982v.002c-.835-.544-.876-1.543-.878-1.586-.006-.271-.229-.485-.5-.481-.272.005-.488.229-.483.499.002.035.016.505.24 1.058-2.973 2.81-7.644 2.813-10.623.017.23-.561.245-1.037.245-1.073.005-.27-.21-.492-.48-.499-.267-.008-.494.209-.503.479 0 .041-.04 1.043-.877 1.587-.228.149-.292.454-.143.681.094.144.25.223.412.223.092 0 .185-.026.268-.08.215-.14.395-.299.546-.469 1.655 1.486 3.745 2.229 5.835 2.229 2.096 0 4.191-.746 5.849-2.239.152.171.334.335.555.479.082.054.176.08.268.08.16 0 .317-.08.412-.224.148-.229.084-.535-.143-.683zM153.9 16.085c-.48-.65-1.08-1.15-1.801-1.5-.72-.35-1.55-.525-2.49-.525-.859 0-1.685.2-2.475.6-.789.4-1.515.88-2.175 1.44h-.09l-.21-1.68h-2.04v20.73h2.46v-4.92l-.061-2.551c.681.521 1.355.93 2.025 1.23.67.3 1.346.449 2.025.449.84 0 1.64-.174 2.4-.524.76-.351 1.43-.864 2.01-1.545s1.039-1.505 1.379-2.476c.341-.97.511-2.074.511-3.314 0-1.14-.125-2.165-.375-3.075-.248-.909-.613-1.689-1.093-2.339zm-1.395 7.845c-.21.721-.5 1.325-.87 1.815-.369.489-.81.87-1.32 1.14-.51.271-1.064.405-1.664.405-.48 0-1.03-.115-1.65-.345-.62-.23-1.26-.625-1.92-1.186v-7.65c.72-.64 1.395-1.13 2.025-1.47.629-.34 1.254-.51 1.875-.51.68 0 1.265.13 1.754.39.49.26.891.625 1.201 1.095.31.47.535 1.035.674 1.695.141.66.211 1.39.211 2.19-.001.901-.106 1.711-.316 2.431zM123.085 27.32h-.226c-.18 0-.34-.08-.479-.24s-.21-.439-.21-.84v-18.6h-2.46v18.42c0 1.08.2 1.899.601 2.459.399.561 1.069.84 2.01.84.34 0 .619-.02.84-.06.22-.04.41-.1.57-.18l-.33-1.86c-.141.041-.247.061-.316.061zM137.24 16.07c-.62-.66-1.336-1.16-2.145-1.5-.811-.34-1.666-.51-2.566-.51-.899 0-1.754.17-2.564.51-.811.34-1.525.84-2.145 1.5-.62.66-1.115 1.465-1.485 2.415-.37.95-.556 2.035-.556 3.255 0 1.199.186 2.275.556 3.225.37.95.865 1.75 1.485 2.4.619.65 1.334 1.145 2.145 1.484s1.665.51 2.564.51c.9 0 1.756-.17 2.566-.51.809-.34 1.524-.834 2.145-1.484.619-.65 1.115-1.45 1.484-2.4.371-.949.555-2.025.555-3.225 0-1.22-.184-2.305-.555-3.255-.369-.95-.865-1.755-1.484-2.415zm-.81 7.95c-.199.681-.484 1.266-.854 1.756s-.815.869-1.335 1.14-1.09.405-1.711.405c-.619 0-1.189-.135-1.709-.405-.521-.271-.965-.649-1.336-1.14-.369-.49-.654-1.075-.854-1.756-.2-.68-.3-1.439-.3-2.279 0-.84.1-1.605.3-2.295s.485-1.285.854-1.785c.371-.5.815-.885 1.336-1.155.52-.27 1.09-.405 1.709-.405.621 0 1.191.135 1.711.405s.965.655 1.335 1.155.655 1.095.854 1.785c.2.69.301 1.455.301 2.295-.001.839-.101 1.599-.301 2.279zM179.63 14.06c-.84 0-1.614.27-2.325.81-.709.54-1.314 1.27-1.814 2.19h-.09l-.211-2.64h-2.039v14.58h2.459v-9.36c.5-1.24 1.086-2.11 1.756-2.61.67-.5 1.314-.75 1.935-.75.3 0 .55.02.75.06s.421.1.66.18l.479-2.16c-.46-.2-.98-.3-1.56-.3zM87.175 15.92c-.49-.6-1.1-1.06-1.83-1.38-.73-.32-1.555-.48-2.475-.48-.84 0-1.65.175-2.43.525-.78.35-1.475.855-2.085 1.515-.61.66-1.1 1.465-1.47 2.415-.37.95-.555 2.025-.555 3.225 0 1.199.18 2.27.54 3.21.36.94.855 1.735 1.485 2.385s1.37 1.149 2.22 1.5c.85.351 1.765.524 2.745.524 1 0 1.89-.149 2.67-.449.78-.301 1.49-.65 2.13-1.051l-.87-1.619c-.54.34-1.105.615-1.695.824-.59.211-1.235.315-1.935.315-1.4 0-2.535-.46-3.405-1.38-.87-.92-1.355-2.17-1.455-3.75h9.84c.06-.359.09-.81.09-1.35 0-1.04-.13-1.98-.39-2.82-.26-.839-.635-1.559-1.125-2.159zm-8.445 4.71c.08-.74.245-1.395.495-1.965.25-.57.565-1.05.945-1.44s.805-.69 1.275-.9c.47-.21.965-.315 1.485-.315 1.14 0 2.025.395 2.655 1.185s.945 1.935.945 3.435h-7.8zM97.939 22.7l-.66 2.159c-.219.721-.439 1.431-.659 2.131h-.12l-.675-2.131c-.229-.719-.455-1.439-.675-2.159l-2.76-8.28h-2.55l5.25 14.58h2.881l5.159-14.58h-2.43l-2.761 8.28zM64.62 9.32h-4.92v19.68h5.04c1.48 0 2.79-.225 3.93-.675s2.1-1.101 2.88-1.95c.78-.85 1.37-1.891 1.77-3.12.4-1.229.6-2.625.6-4.185 0-3.14-.79-5.55-2.37-7.23-1.58-1.68-3.89-2.52-6.93-2.52zm4.995 15.571c-1.15 1.379-2.875 2.069-5.175 2.069h-2.25v-15.6h2.25c2.3 0 4.025.66 5.175 1.98 1.15 1.32 1.725 3.23 1.725 5.73 0 2.5-.575 4.44-1.725 5.821zM115.096 15.92c-.49-.6-1.101-1.06-1.83-1.38-.73-.32-1.556-.48-2.476-.48-.84 0-1.649.175-2.431.525-.779.35-1.475.855-2.084 1.515-.61.66-1.101 1.465-1.471 2.415-.369.95-.555 2.025-.555 3.225 0 1.199.18 2.27.54 3.21s.854 1.735 1.485 2.385c.629.649 1.369 1.149 2.22 1.5s1.765.524 2.745.524c1 0 1.89-.149 2.67-.449.779-.301 1.49-.65 2.13-1.051l-.87-1.619c-.54.34-1.105.615-1.695.824-.59.211-1.234.315-1.935.315-1.399 0-2.535-.46-3.405-1.38-.869-.92-1.355-2.17-1.455-3.75h9.84c.061-.359.09-.81.09-1.35 0-1.04-.129-1.98-.389-2.82-.26-.839-.635-1.559-1.124-2.159zm-8.446 4.71c.08-.74.244-1.395.494-1.965.25-.57.565-1.05.945-1.44.381-.39.805-.69 1.275-.9.47-.21.965-.315 1.484-.315 1.141 0 2.025.395 2.655 1.185s.945 1.935.945 3.435h-7.798zM168.535 15.92c-.49-.6-1.1-1.06-1.83-1.38-.73-.32-1.555-.48-2.475-.48-.84 0-1.65.175-2.431.525s-1.475.855-2.085 1.515c-.609.66-1.1 1.465-1.47 2.415-.37.95-.556 2.025-.556 3.225 0 1.199.181 2.27.541 3.21.359.94.854 1.735 1.484 2.385.631.649 1.37 1.149 2.221 1.5.85.351 1.765.524 2.744.524 1 0 1.891-.149 2.67-.449.78-.301 1.49-.65 2.131-1.051l-.871-1.619c-.539.34-1.104.615-1.694.824-.59.211-1.235.315-1.935.315-1.4 0-2.535-.46-3.405-1.38s-1.354-2.17-1.455-3.75h9.84c.06-.359.09-.81.09-1.35 0-1.04-.13-1.98-.39-2.82s-.634-1.559-1.124-2.159zm-8.445 4.71c.08-.74.245-1.395.495-1.965.25-.57.565-1.05.944-1.44.381-.39.806-.69 1.275-.9.471-.21.965-.315 1.485-.315 1.14 0 2.024.395 2.655 1.185.63.79.945 1.935.945 3.435h-7.799z"/></g></svg>
